<?xml version="1.0" encoding="utf-8"?>
<!-- Generator: Adobe Illustrator 23.0.1, SVG Export Plug-In . SVG Version: 6.00 Build 0)  -->
<svg version="1.1" xmlns="http://www.w3.org/2000/svg" xmlns:xlink="http://www.w3.org/1999/xlink" x="0px" y="0px"
	 viewBox="0 0 841.9 595.3" style="enable-background:new 0 0 841.9 595.3;" xml:space="preserve">
<style type="text/css">
	.st0{stroke:#000000;stroke-miterlimit:10;}
	.st1{fill:none;stroke:#000000;stroke-miterlimit:10;}
	.st2{fill:#FFFFFF;stroke:#000000;stroke-width:9;stroke-miterlimit:10;}
</style>
<g id="Layer_2">
	<path class="st0" d="M505.4,334.8c-8.7,3.9-18.3,7.4-28.6,9.9c-13.2,3.2-27.5,4.7-42.5,3.1c-1.8-0.2-3.7-0.4-5.5-0.7
		c-30.7-4.7-51.5-20.5-61.4-11.9c-7.7,6.8-3.6,24.2,0.8,37.3c7.8,0.8,17.1,2.6,18.2,7.2c2.5,10.5-40.3,21.2-63.2,46.3
		c-18.2,20-31.5,57.7-12.2,135.3c2.9,0,16.5,0,19.4,0c71,0,141.9,0.2,212.9,0.4c6.6-0.1,13.2-0.3,19.8-0.4
		c19.6-79.1,6-117-12.5-136.8c-22.1-23.7-66.1-37.4-63.5-44.9c1.2-3.7,11.7-0.6,18.2-7.2C513.2,364.6,510,348.4,505.4,334.8z"/>
</g>
<g id="Layer_1">
	<path class="st1" d="M275.5,185.5"/>
	<path class="st2" d="M335.1,526.5c0,0-14.1-6.2-18.9,1.6c-4.8,7.8,9.1,17.6,15.8,21.2c9.4,5.1,23.2,9,27.3,3.7
		c1.1-1.4,1.3-3.3,1.3-4.7c-0.2-1.3-0.6-2.7-1.2-4.2c-2-4.8-5.3-7.8-7.3-9.2L530,242.2c0,0,53.7-33.4,77.4-73.2
		c23.7-39.8,59.6-93.4,59.6-93.4c1.9-2.5,4-6,4.4-10.3c2.1-21.5-37.7-48.6-58.7-39.5c-4.3,1.9-7,4.8-7.5,5.6
		c-6.7,10.5-69.2,116.9-69.2,116.9c-5.3,12.8-10.6,25.6-15.9,38.5c-1.6,5.6-3,11.9-4.1,18.8c-1.5,9-2,17.3-2.1,24.5
		c-30.1,48.8-60,97.7-89.6,146.8C394.3,426.7,364.6,476.5,335.1,526.5z"/>
</g>
<g id="Layer_3">
	<path class="st0" d="M430.3,349.4"/>
	<path class="st0" d="M491.7,361.3"/>
	<path class="st0" d="M368.2,372.5c0,0-12.5-30.7,0.7-39.1c13.2-8.4,43.9,22.1,98.2,12.7c23.3-3.4,30.8-9.6,38.3-11.3
		c0.1,0.2,13.8,31.2-2.8,40.3C486,384.2,368.2,372.5,368.2,372.5"/>
</g>
</svg>
